<svg width="375" height="375" viewBox="0 0 375 375" fill="none" xmlns="http://www.w3.org/2000/svg">
<rect width="375" height="375" rx="25" fill="#2C2C2C"/>
<path d="M82.1503 203V173.8H91.1103C93.937 173.8 96.177 174.48 97.8303 175.84C99.4836 177.173 100.31 179 100.31 181.32C100.31 182.627 100.017 183.76 99.4303 184.72C98.8436 185.68 98.0436 186.427 97.0303 186.96C96.0436 187.493 94.897 187.76 93.5903 187.76V187.6C95.0036 187.573 96.257 187.84 97.3503 188.4C98.4703 188.933 99.3503 189.733 99.9903 190.8C100.657 191.867 100.99 193.16 100.99 194.68C100.99 196.36 100.604 197.827 99.8303 199.08C99.057 200.333 97.9636 201.307 96.5503 202C95.1636 202.667 93.497 203 91.5503 203H82.1503ZM87.0303 198.84H91.2303C92.697 198.84 93.8436 198.453 94.6703 197.68C95.5236 196.88 95.9503 195.8 95.9503 194.44C95.9503 193.08 95.5236 191.987 94.6703 191.16C93.8436 190.307 92.697 189.88 91.2303 189.88H87.0303V198.84ZM87.0303 185.84H91.0303C92.3636 185.84 93.4036 185.493 94.1503 184.8C94.9236 184.08 95.3103 183.107 95.3103 181.88C95.3103 180.653 94.9236 179.693 94.1503 179C93.4036 178.307 92.3636 177.96 91.0303 177.96H87.0303V185.84ZM118.415 203C116.975 203 115.708 202.707 114.615 202.12C113.548 201.533 112.708 200.707 112.095 199.64C111.481 198.547 111.175 197.293 111.175 195.88V178.32H104.135V173.8H116.175V195.88C116.175 196.68 116.401 197.32 116.855 197.8C117.335 198.253 117.975 198.48 118.775 198.48H125.415V203H118.415ZM139.039 203.36C137.172 203.36 135.546 203.013 134.159 202.32C132.799 201.6 131.732 200.6 130.959 199.32C130.212 198.013 129.839 196.48 129.839 194.72V189.28C129.839 187.52 130.212 186 130.959 184.72C131.732 183.413 132.799 182.413 134.159 181.72C135.546 181 137.172 180.64 139.039 180.64C140.932 180.64 142.559 181 143.919 181.72C145.279 182.413 146.332 183.413 147.079 184.72C147.852 186 148.239 187.507 148.239 189.24V194.72C148.239 196.48 147.852 198.013 147.079 199.32C146.332 200.6 145.279 201.6 143.919 202.32C142.559 203.013 140.932 203.36 139.039 203.36ZM139.039 199C140.372 199 141.399 198.64 142.119 197.92C142.866 197.173 143.239 196.107 143.239 194.72V189.28C143.239 187.867 142.866 186.8 142.119 186.08C141.399 185.36 140.372 185 139.039 185C137.732 185 136.706 185.36 135.959 186.08C135.212 186.8 134.839 187.867 134.839 189.28V194.72C134.839 196.107 135.212 197.173 135.959 197.92C136.706 198.64 137.732 199 139.039 199ZM163.143 203.4C161.277 203.4 159.637 203.053 158.223 202.36C156.837 201.64 155.757 200.64 154.983 199.36C154.21 198.053 153.823 196.52 153.823 194.76V189.24C153.823 187.453 154.21 185.92 154.983 184.64C155.757 183.36 156.837 182.373 158.223 181.68C159.637 180.96 161.277 180.6 163.143 180.6C165.917 180.6 168.13 181.32 169.783 182.76C171.437 184.173 172.303 186.107 172.383 188.56H167.383C167.303 187.413 166.89 186.533 166.143 185.92C165.423 185.28 164.423 184.96 163.143 184.96C161.81 184.96 160.757 185.333 159.983 186.08C159.21 186.8 158.823 187.84 158.823 189.2V194.76C158.823 196.12 159.21 197.173 159.983 197.92C160.757 198.667 161.81 199.04 163.143 199.04C164.423 199.04 165.423 198.733 166.143 198.12C166.89 197.48 167.303 196.587 167.383 195.44H172.383C172.303 197.893 171.437 199.84 169.783 201.28C168.13 202.693 165.917 203.4 163.143 203.4ZM178.208 203V173.8H183.208V189.64H186.688L192.048 181H197.648L191.008 191.64L197.768 203H192.048L186.688 193.88H183.208V203H178.208ZM201.872 203V173.8H207.992L216.112 197.4C216.032 196.547 215.939 195.547 215.832 194.4C215.752 193.227 215.686 192.04 215.632 190.84C215.579 189.613 215.552 188.547 215.552 187.64V173.8H220.112V203H213.992L205.952 179.4C206.006 180.173 206.072 181.107 206.152 182.2C206.232 183.293 206.299 184.413 206.352 185.56C206.406 186.707 206.432 187.76 206.432 188.72V203H201.872ZM235.017 203.4C233.15 203.4 231.523 203.04 230.137 202.32C228.75 201.6 227.67 200.6 226.897 199.32C226.15 198.013 225.777 196.493 225.777 194.76V189.24C225.777 187.507 226.15 186 226.897 184.72C227.67 183.413 228.75 182.4 230.137 181.68C231.523 180.96 233.15 180.6 235.017 180.6C236.857 180.6 238.457 180.96 239.817 181.68C241.203 182.4 242.27 183.413 243.017 184.72C243.79 186 244.177 187.507 244.177 189.24V193.2H230.617V194.76C230.617 196.307 230.99 197.48 231.737 198.28C232.483 199.053 233.59 199.44 235.057 199.44C236.177 199.44 237.083 199.253 237.777 198.88C238.47 198.48 238.91 197.907 239.097 197.16H244.017C243.643 199.053 242.63 200.573 240.977 201.72C239.35 202.84 237.363 203.4 235.017 203.4ZM239.337 190.4V189.2C239.337 187.68 238.977 186.52 238.257 185.72C237.537 184.893 236.457 184.48 235.017 184.48C233.577 184.48 232.483 184.893 231.737 185.72C230.99 186.547 230.617 187.72 230.617 189.24V190.08L239.697 190L239.337 190.4ZM258.121 203.36C256.441 203.36 254.974 203.093 253.721 202.56C252.468 202.027 251.481 201.293 250.761 200.36C250.068 199.4 249.694 198.28 249.641 197H254.641C254.694 197.693 255.028 198.253 255.641 198.68C256.281 199.107 257.108 199.32 258.121 199.32H259.881C261.108 199.32 262.028 199.08 262.641 198.6C263.254 198.12 263.561 197.467 263.561 196.64C263.561 195.867 263.281 195.267 262.721 194.84C262.188 194.387 261.348 194.093 260.201 193.96L257.481 193.56C254.974 193.213 253.134 192.547 251.961 191.56C250.788 190.573 250.201 189.093 250.201 187.12C250.201 185.067 250.894 183.48 252.281 182.36C253.668 181.213 255.708 180.64 258.401 180.64H259.921C262.374 180.64 264.334 181.187 265.801 182.28C267.268 183.373 268.054 184.84 268.161 186.68H263.161C263.081 186.093 262.748 185.613 262.161 185.24C261.601 184.867 260.854 184.68 259.921 184.68H258.401C257.254 184.68 256.414 184.893 255.881 185.32C255.374 185.72 255.121 186.32 255.121 187.12C255.121 187.867 255.348 188.427 255.801 188.8C256.254 189.147 256.988 189.4 258.001 189.56L260.841 189.96C263.454 190.333 265.374 191.04 266.601 192.08C267.854 193.093 268.481 194.6 268.481 196.6C268.481 198.733 267.748 200.4 266.281 201.6C264.841 202.773 262.708 203.36 259.881 203.36H258.121ZM285.345 203C283.239 203 281.585 202.413 280.385 201.24C279.212 200.067 278.625 198.453 278.625 196.4V185.52H272.665V181H278.625V174.8H283.665V181H292.105V185.52H283.665V196.4C283.665 197.787 284.345 198.48 285.705 198.48H291.705V203H285.345Z" fill="white"/>
</svg>
