<svg width="70" height="70" viewBox="0 0 70 70" fill="none" xmlns="http://www.w3.org/2000/svg">
<g clip-path="url(#clip0_9_96)">
<path fill-rule="evenodd" clip-rule="evenodd" d="M35 63.4375C39.9923 63.4448 44.8977 62.1317 49.2188 59.6313V50.3125C49.2188 47.7018 48.1816 45.198 46.3356 43.3519C44.4895 41.5059 41.9857 40.4688 39.375 40.4688H30.625C28.0143 40.4688 25.5105 41.5059 23.6644 43.3519C21.8184 45.198 20.7812 47.7018 20.7812 50.3125V59.6313C25.1023 62.1317 30.0077 63.4448 35 63.4375ZM55.7812 50.3125V54.4119C59.5643 50.362 62.0816 45.2949 63.0237 39.8336C63.9657 34.3723 63.2914 28.7547 61.0837 23.6715C58.8761 18.5882 55.2312 14.2608 50.5972 11.2212C45.9632 8.18158 40.542 6.56224 35 6.56224C29.458 6.56224 24.0368 8.18158 19.4028 11.2212C14.7688 14.2608 11.1239 18.5882 8.91625 23.6715C6.70857 28.7547 6.03431 34.3723 6.97635 39.8336C7.91839 45.2949 10.4357 50.362 14.2188 54.4119V50.3125C14.2174 46.9298 15.2618 43.6294 17.2088 40.8632C19.1558 38.097 21.9102 36.0002 25.095 34.86C23.4429 32.9598 22.3723 30.6244 22.0109 28.1326C21.6495 25.6407 22.0125 23.0974 23.0566 20.8061C24.1007 18.5148 25.7818 16.5722 27.8995 15.2101C30.0172 13.8479 32.482 13.1236 35 13.1236C37.518 13.1236 39.9828 13.8479 42.1005 15.2101C44.2182 16.5722 45.8993 18.5148 46.9434 20.8061C47.9875 23.0974 48.3505 25.6407 47.9891 28.1326C47.6277 30.6244 46.5571 32.9598 44.905 34.86C48.0898 36.0002 50.8442 38.097 52.7912 40.8632C54.7382 43.6294 55.7826 46.9298 55.7812 50.3125ZM35 70C44.2826 70 53.185 66.3125 59.7487 59.7487C66.3125 53.185 70 44.2826 70 35C70 25.7174 66.3125 16.815 59.7487 10.2513C53.185 3.68749 44.2826 0 35 0C25.7174 0 16.815 3.68749 10.2513 10.2513C3.68749 16.815 0 25.7174 0 35C0 44.2826 3.68749 53.185 10.2513 59.7487C16.815 66.3125 25.7174 70 35 70ZM41.5625 26.25C41.5625 27.9905 40.8711 29.6597 39.6404 30.8904C38.4097 32.1211 36.7405 32.8125 35 32.8125C33.2595 32.8125 31.5903 32.1211 30.3596 30.8904C29.1289 29.6597 28.4375 27.9905 28.4375 26.25C28.4375 24.5095 29.1289 22.8403 30.3596 21.6096C31.5903 20.3789 33.2595 19.6875 35 19.6875C36.7405 19.6875 38.4097 20.3789 39.6404 21.6096C40.8711 22.8403 41.5625 24.5095 41.5625 26.25Z" fill="#FFD233"/>
</g>
<defs>
<clipPath id="clip0_9_96">
<rect width="70" height="70" fill="white"/>
</clipPath>
</defs>
</svg>
